# xmcd
#
# Track frame offsets: 
#        150
#        19612
#        36832
#        54005
#        67752
#        79310
#        93807
#        109115
#        121305
#        143940
#        164060
#        184072
#        186400
#        204787
#        212250
#        232950
#        242742
#        265772
#        278510
#
# Disc length: 4586 seconds
#
# Revision: 9
# Processed by: cddbd v1.5.2PL0 Copyright (c) Steve Scherf et al.
# Submitted via: ExactAudioCopy v1.3
#
DISCID=f611e813
DTITLE=Raphael Saadiq - Instant Vintage
DYEAR=2002
DGENRE=Rhythm and Blues
TTITLE0=Doing What I Can
TTITLE1=Body Parts
TTITLE2=Be Here (ft D'Angelo)
TTITLE3=Still Ray
TTITLE4=Oph
TTITLE5=You're the One That I Like
TTITLE6=Excuse Me (ft Angie Stone and Calvin Richardson)
TTITLE7=Charlie Ray
TTITLE8=Different Times (ft T-Boz)
TTITLE9=Tick Tock
TTITLE10=People
TTITLE11=Tek #1
TTITLE12=Faithful
TTITLE13=Make My Day
TTITLE14=Blind Man
TTITLE15=Tek #2
TTITLE16=Uptown
TTITLE17=What's Life Like
TTITLE18=Skyy, Can You Feel Me (ft Rosie Kaye)
EXTD=YEAR: 2002
EXTT0=
EXTT1=
EXTT2=
EXTT3=
EXTT4=
EXTT5=
EXTT6=
EXTT7=
EXTT8=
EXTT9=
EXTT10=
EXTT11=
EXTT12=
EXTT13=
EXTT14=
EXTT15=
EXTT16=
EXTT17=
EXTT18=
PLAYORDER=
